<mxfile host="app.diagrams.net" modified="2023-07-21T20:28:45.191Z" agent="Mozilla/5.0 (Windows NT 10.0; Win64; x64) AppleWebKit/537.36 (KHTML, like Gecko) Chrome/114.0.0.0 Safari/537.36" etag="qXzmKXU64fFk5C_08cAH" version="21.6.1" type="gitlab">
  <diagram name="Seite-1" id="qKXpBF1UtUGDN7HU3MU3">
    <mxGraphModel dx="2261" dy="756" grid="1" gridSize="10" guides="1" tooltips="1" connect="1" arrows="1" fold="1" page="1" pageScale="1" pageWidth="827" pageHeight="1169" math="0" shadow="0">
      <root>
        <mxCell id="0" />
        <mxCell id="1" parent="0" />
        <mxCell id="-vU-UIwf70NyPM8y4HsT-7" value="" style="rounded=0;whiteSpace=wrap;html=1;fillColor=#E6E6E6;" vertex="1" parent="1">
          <mxGeometry y="60" width="830" height="450" as="geometry" />
        </mxCell>
        <mxCell id="-vU-UIwf70NyPM8y4HsT-8" value="" style="group" vertex="1" connectable="0" parent="1">
          <mxGeometry x="520" y="560" width="74" height="79" as="geometry" />
        </mxCell>
        <mxCell id="-vU-UIwf70NyPM8y4HsT-5" value="" style="shape=image;html=1;verticalAlign=top;verticalLabelPosition=bottom;labelBackgroundColor=#ffffff;imageAspect=0;aspect=fixed;image=https://cdn1.iconfinder.com/data/icons/ui-essential-17/32/UI_Essential_Outline_2_essential-app-ui-like-128.png" vertex="1" parent="-vU-UIwf70NyPM8y4HsT-8">
          <mxGeometry y="29" width="50" height="50" as="geometry" />
        </mxCell>
        <mxCell id="-vU-UIwf70NyPM8y4HsT-6" value="" style="shape=image;html=1;verticalAlign=top;verticalLabelPosition=bottom;labelBackgroundColor=#ffffff;imageAspect=0;aspect=fixed;image=https://cdn1.iconfinder.com/data/icons/ui-essential-17/32/UI_Essential_Outline_2_essential-app-ui-like-128.png;rotation=-180;" vertex="1" parent="-vU-UIwf70NyPM8y4HsT-8">
          <mxGeometry x="24" width="50" height="50" as="geometry" />
        </mxCell>
        <mxCell id="-vU-UIwf70NyPM8y4HsT-10" value="" style="group" vertex="1" connectable="0" parent="1">
          <mxGeometry x="351" y="530.5" width="128" height="158" as="geometry" />
        </mxCell>
        <mxCell id="-vU-UIwf70NyPM8y4HsT-4" value="" style="shape=image;html=1;verticalAlign=top;verticalLabelPosition=bottom;labelBackgroundColor=#ffffff;imageAspect=0;aspect=fixed;image=https://cdn1.iconfinder.com/data/icons/ui-essential-17/32/UI_Essential_Outline_1_essential-app-ui-avatar-profile-user-account-128.png" vertex="1" parent="-vU-UIwf70NyPM8y4HsT-10">
          <mxGeometry width="128" height="128" as="geometry" />
        </mxCell>
        <mxCell id="-vU-UIwf70NyPM8y4HsT-9" value="User" style="text;html=1;align=center;verticalAlign=middle;resizable=0;points=[];autosize=1;strokeColor=none;fillColor=none;" vertex="1" parent="-vU-UIwf70NyPM8y4HsT-10">
          <mxGeometry x="40" y="128" width="50" height="30" as="geometry" />
        </mxCell>
        <mxCell id="-vU-UIwf70NyPM8y4HsT-11" value="Server" style="text;html=1;align=center;verticalAlign=middle;resizable=0;points=[];autosize=1;strokeColor=none;fillColor=none;" vertex="1" parent="1">
          <mxGeometry x="-5" y="60" width="60" height="30" as="geometry" />
        </mxCell>
        <mxCell id="-vU-UIwf70NyPM8y4HsT-13" value="" style="group" vertex="1" connectable="0" parent="1">
          <mxGeometry x="720" y="250" width="120" height="90" as="geometry" />
        </mxCell>
        <mxCell id="-vU-UIwf70NyPM8y4HsT-1" value="" style="shape=datastore;whiteSpace=wrap;html=1;" vertex="1" parent="-vU-UIwf70NyPM8y4HsT-13">
          <mxGeometry x="30" width="60" height="60" as="geometry" />
        </mxCell>
        <mxCell id="-vU-UIwf70NyPM8y4HsT-12" value="MySQL Database" style="text;html=1;align=center;verticalAlign=middle;resizable=0;points=[];autosize=1;strokeColor=none;fillColor=none;" vertex="1" parent="-vU-UIwf70NyPM8y4HsT-13">
          <mxGeometry y="60" width="120" height="30" as="geometry" />
        </mxCell>
        <mxCell id="-vU-UIwf70NyPM8y4HsT-16" value="" style="group" vertex="1" connectable="0" parent="1">
          <mxGeometry x="365" y="235" width="100" height="120" as="geometry" />
        </mxCell>
        <mxCell id="-vU-UIwf70NyPM8y4HsT-3" value="" style="shadow=0;dashed=0;html=1;strokeColor=none;fillColor=#000000;labelPosition=center;verticalLabelPosition=bottom;verticalAlign=top;align=center;outlineConnect=0;shape=mxgraph.veeam.2d.web_ui;" vertex="1" parent="-vU-UIwf70NyPM8y4HsT-16">
          <mxGeometry x="5" width="90" height="90" as="geometry" />
        </mxCell>
        <mxCell id="-vU-UIwf70NyPM8y4HsT-15" value="User Interface" style="text;html=1;align=center;verticalAlign=middle;resizable=0;points=[];autosize=1;strokeColor=none;fillColor=none;" vertex="1" parent="-vU-UIwf70NyPM8y4HsT-16">
          <mxGeometry y="90" width="100" height="30" as="geometry" />
        </mxCell>
        <mxCell id="-vU-UIwf70NyPM8y4HsT-18" value="" style="endArrow=classic;html=1;rounded=0;entryX=0.51;entryY=0.967;entryDx=0;entryDy=0;entryPerimeter=0;exitX=0.5;exitY=0;exitDx=0;exitDy=0;" edge="1" parent="1" source="-vU-UIwf70NyPM8y4HsT-4" target="-vU-UIwf70NyPM8y4HsT-15">
          <mxGeometry width="50" height="50" relative="1" as="geometry">
            <mxPoint x="390" y="410" as="sourcePoint" />
            <mxPoint x="440" y="360" as="targetPoint" />
          </mxGeometry>
        </mxCell>
        <mxCell id="-vU-UIwf70NyPM8y4HsT-19" value="Company&amp;nbsp;&lt;br&gt;Infrastructure" style="text;html=1;align=center;verticalAlign=middle;resizable=0;points=[];autosize=1;strokeColor=none;fillColor=none;" vertex="1" parent="1">
          <mxGeometry x="414" y="430" width="90" height="40" as="geometry" />
        </mxCell>
        <mxCell id="-vU-UIwf70NyPM8y4HsT-21" value="" style="edgeStyle=orthogonalEdgeStyle;rounded=0;orthogonalLoop=1;jettySize=auto;html=1;entryX=0;entryY=0.5;entryDx=0;entryDy=0;" edge="1" parent="1" source="-vU-UIwf70NyPM8y4HsT-3" target="-vU-UIwf70NyPM8y4HsT-1">
          <mxGeometry relative="1" as="geometry">
            <mxPoint x="545" y="280" as="targetPoint" />
          </mxGeometry>
        </mxCell>
        <mxCell id="-vU-UIwf70NyPM8y4HsT-22" value="Anonymization&lt;br&gt;Module" style="text;html=1;align=center;verticalAlign=middle;resizable=0;points=[];autosize=1;strokeColor=none;fillColor=none;" vertex="1" parent="1">
          <mxGeometry x="555" y="280" width="100" height="40" as="geometry" />
        </mxCell>
      </root>
    </mxGraphModel>
  </diagram>
</mxfile>
